<svg xmlns="http://www.w3.org/2000/svg" width="544.583" height="347.809" xml:space="preserve"><path d="M-21.92 0v347.809h544.583V0Z" style="fill:#004d8f;fill-opacity:1;stroke:none;stroke-width:1.08755" transform="translate(21.92)"/><path d="M-15.378 6.544h531.496v334.72l-531.496.002z" style="fill:#fff;fill-opacity:1;stroke:none;stroke-width:1.08755" transform="translate(21.92)"/><path style="fill:#004d8f;fill-opacity:1;stroke:none;stroke-width:1.08755" d="M494.897 103.102V31.627H4.336v71.475z" transform="translate(21.92)"/><path style="fill:#ffa425;fill-opacity:1;stroke:none;stroke-width:1.08755" d="M494.897 318.868v-71.475H4.336v71.475z" transform="translate(21.92)"/><path style="fill:#004d8f;fill-opacity:1;stroke:none;stroke-width:1.08755" d="M326.96 234.642h-25.167l66.941-110.904h28.353l9.564 110.904h-29.528l-2.074-25.671h-33.97Zm22.055-40.1h24.867l-3.185-39.418zm-74.505 40.395c10.029-1.662 17.489-4.934 24.07-10.186 13.085-10.442 17.866-28.871 10.3-40.951-3.93-6.277-11.954-10.693-18.557-14.906-6.605-4.215-11.876-8.176-14.065-12.631-2.19-4.456-1.633-9.712 1.268-12.586 7.452-7.385 19.523-5.523 28.524-3.045 5.133 1.414 9.2 3.559 12.69 6.428l10.4-16.61c-4.828-3.453-10.315-5.91-18.063-7.719-7.75-1.808-17.763-2.966-26.466-2.322-8.704.645-16.1 3.095-22.65 7.433-6.552 4.338-12.26 10.563-15.464 17.273-3.205 6.71-4.075 13.959-1.943 20.122 4.303 12.44 15.486 17.937 25.392 23.867 4.334 2.593 8.054 5.54 10.058 9.06 2.004 3.52 2.284 7.626-.13 11.032-2.415 3.406-7.524 6.115-13.409 7.079-5.885.964-12.545.182-18.74-1.698-6.196-1.88-11.926-4.86-16.898-8.793l-6.544 19.462c13.773 12.228 33.388 12.483 50.227 9.691zm-33.283-111.199h-31.205L174.96 234.642h31.205zm-39.928 0-68.283 110.904H103.32l-2.685-87.75c-.122-3.983-.229-8.104-1.732-11.288-1.504-3.185-3.859-5.416-6.993-6.97-3.135-1.552-7.045-2.428-10.904-2.379v-2.517h48.989l2.398 75.492 43.74-75.492z" transform="translate(21.92)"/><path d="M478.09 297.128c-5.005 0-9.064 4.013-9.064 8.995 0 5.05 4.059 9.063 9.064 9.063 4.981 0 9.017-4.013 9.017-9.063 0-4.982-4.036-8.995-9.017-8.995zm0 1.338c4.266 0 7.656 3.436 7.656 7.68 0 4.29-3.39 7.703-7.656 7.703a7.673 7.673 0 0 1-7.703-7.703c0-4.244 3.436-7.68 7.703-7.68zm1.476 8.072c1.752-.022 3.167-.761 3.182-2.768.006-.83-.441-1.708-1.153-2.167-.79-.511-1.614-.554-2.445-.554h-4.45v10.147h1.29v-4.658h2.238l2.86 4.658h1.499zm-3.575-.969v-3.551h2.86c1.245 0 2.606.184 2.606 1.706 0 2.053-2.191 1.845-3.598 1.845z" style="font-style:normal;font-variant:normal;font-weight:500;font-stretch:condensed;font-size:3.52778px;line-height:1;font-family:Helvetica;-inkscape-font-specification:'Helvetica Medium Condensed';text-align:start;letter-spacing:0;word-spacing:0;text-anchor:start;display:inline;fill:#fff;fill-opacity:1;stroke:none;stroke-width:1.7297" transform="translate(21.92)"/><path d="M413.874 120.875c-5.005 0-9.064 4.013-9.064 8.994 0 5.05 4.059 9.064 9.064 9.064 4.981 0 9.017-4.013 9.017-9.064 0-4.981-4.036-8.994-9.017-8.994zm0 1.337c4.266 0 7.656 3.437 7.656 7.68 0 4.29-3.39 7.703-7.656 7.703a7.673 7.673 0 0 1-7.703-7.703c0-4.243 3.436-7.68 7.703-7.68zm1.476 8.072c1.752-.022 3.166-.76 3.182-2.767.006-.83-.442-1.708-1.153-2.168-.79-.511-1.614-.554-2.445-.554h-4.45v10.148h1.29v-4.659h2.238l2.86 4.659h1.499zm-3.575-.968v-3.552h2.86c1.245 0 2.606.185 2.606 1.707 0 2.052-2.191 1.845-3.598 1.845z" style="font-style:normal;font-variant:normal;font-weight:500;font-stretch:condensed;font-size:3.52778px;line-height:1;font-family:Helvetica;-inkscape-font-specification:'Helvetica Medium Condensed';text-align:start;letter-spacing:0;word-spacing:0;text-anchor:start;display:inline;fill:#004d8f;fill-opacity:1;stroke:none;stroke-width:1.7297" transform="translate(21.92)"/></svg>